<?xml version="1.0" encoding="utf-8"?>
<!-- Generator: Adobe Illustrator 22.0.0, SVG Export Plug-In . SVG Version: 6.00 Build 0)  -->
<svg version="1.1" id="Calque_1" xmlns="http://www.w3.org/2000/svg" xmlns:xlink="http://www.w3.org/1999/xlink" x="0px" y="0px"
	 viewBox="0 0 466 484.3" style="enable-background:new 0 0 466 484.3;" xml:space="preserve">
<style type="text/css">
	.st0{fill:#F9F9F9;}
	.st1{font-family:'ArialMT';}
	.st2{font-size:110.0414px;}
</style>
<title>rim_logo</title>
<g>
	<rect x="125.7" y="196.9" width="233.4" height="233.4"/>
	<rect x="96.5" y="298.5" width="29.2" height="29.2"/>
	<path d="M98.1,271.3c0-11.6-9.4-21.1-21-21.1s-21.1,9.4-21.1,21c0,4.1,1.2,8.1,3.4,11.6h-0.5l17,30.6l18.9-30.2h-0.4
		C96.9,279.7,98.1,275.5,98.1,271.3z"/>
	<path d="M98.1,355.7c0,11.6-9.4,21.1-21.1,21.1S56,367.4,56,355.7c0-4.2,1.2-8.3,3.5-11.9l-0.6,0.2l17-31.2l18.9,30.8h-0.4
		C96.9,347.2,98.2,351.4,98.1,355.7z"/>
	<rect x="85.2" y="91.6" transform="matrix(0.7581 -0.6521 0.6521 0.7581 -20.0323 158.3578)" width="236.6" height="29.2"/>
	<text transform="matrix(0.96 0 0 1 148.27 350.4326)" class="st0 st1 st2">RIM</text>
</g>
</svg>
