<svg id="Calque_1" data-name="Calque 1" xmlns="http://www.w3.org/2000/svg" viewBox="0 0 303.03 412.29"><defs><style>.cls-1{fill:#f3999d;}.cls-2{font-size:149.47px;fill:#f9f9f9;font-family:BrowalliaUPC, BrowalliaUPC;}</style></defs><title>logo_rim</title><rect class="cls-1" x="69.68" y="178.94" width="233.35" height="233.35"/><rect class="cls-1" x="40.51" y="280.45" width="30.32" height="29.17"/><path class="cls-1" d="M134.3,291.28a21.07,21.07,0,1,0-38.7,11.51h-.51l17,30.63L131,303.17h-.37A21,21,0,0,0,134.3,291.28Z" transform="translate(-92.16 -38)"/><path class="cls-1" d="M134.3,375.74a21.07,21.07,0,1,1-42.14,0,22.3,22.3,0,0,1,3.51-11.9l-.58.17,17-31.19L131,363.62h-.37A21.65,21.65,0,0,1,134.3,375.74Z" transform="translate(-92.16 -38)"/><rect class="cls-1" x="121.33" y="111.61" width="236.59" height="29.17" transform="translate(-116.5 148.77) rotate(-40.7)"/><text class="cls-2" transform="translate(101.27 329.63) scale(0.96 1)">RIM</text></svg>