<?xml version="1.0" encoding="utf-8"?>
<!-- Generator: Adobe Illustrator 22.0.0, SVG Export Plug-In . SVG Version: 6.00 Build 0)  -->
<svg version="1.1" id="Calque_1" xmlns="http://www.w3.org/2000/svg" xmlns:xlink="http://www.w3.org/1999/xlink" x="0px" y="0px"
	 viewBox="0 0 607.1 226.5" style="enable-background:new 0 0 607.1 226.5;" xml:space="preserve">
<style type="text/css">
	.st0{fill:#FFFFFF;}
</style>
<title>logoBnf</title>
<path class="st0" d="M222.1,105.2c5.5,1.8,10.7,3.1,15.7,5.1c22.3,9.3,34.1,29.5,31.9,53.5c-1.1,12-3.9,23.4-11.5,33
	c-9,11.5-21.5,17-35.2,20.3c-11.9,2.8-24.1,3.4-36.3,3.4c-18.8,0-37.7,0-56.5,0c-0.8,0-1.6-0.1-2.7-0.2V6.1h3.2c20,0,40,0,59.9,0
	c11.9,0,23.4,1.6,34.5,6.1c22.9,9.4,34,29,30.9,53.6c-2.5,20.1-13.2,33.1-32.6,39C223.2,104.8,222.8,105,222.1,105.2z M159.8,193.4
	c8.8,0,17.2,0.2,25.6-0.1c8-0.1,16-0.8,23.9-1.9c12.7-2,22-8.6,25-21.9c0.7-3.2,1.2-6.5,1.3-9.9c0.8-15.6-5.2-26.6-17.8-32.1
	c-4.4-1.9-9.2-3.6-14-3.9c-14.2-1-28.4-1.2-42.6-1.7c-0.5,0.1-1,0.2-1.4,0.4L159.8,193.4L159.8,193.4z M159.8,33.4V95
	c14.6-0.4,29.1,1.1,43.2-3c5.9-1.7,11.1-4.6,14.9-9.7c13-17.4,4.4-41.9-16.6-47C187.7,32.1,173.8,34.1,159.8,33.4L159.8,33.4z"/>
<path class="st0" d="M443.5,220.4h-32.2v-3.8c0-32.6,0-65.1-0.2-97.7c-0.1-6.2-0.7-12.4-1.9-18.6c-2.6-13.4-13.4-22-27-23.1
	c-24.9-1.9-39.6,15.4-42.7,36c-1.2,8.8-1.9,17.8-1.9,26.7c-0.2,25.5-0.1,51-0.1,76.5v3.9h-32.4v-4.1c0-42,0.1-84.1-0.2-126.1
	c-0.1-10.4-1.9-20.9-3-31.3c-0.3-2.3-1.3-4.6-2-7.2h16.3c4.3,0,8.5,0.2,12.8-0.1c2.5-0.1,3.7,0.8,4,3.1c0.8,5.6,1.6,11.3,2.4,16.9
	c0.1,0.7,0.1,1.4,0.2,2.5c0.4-0.3,0.8-0.7,1.2-1.1c9.4-14.1,23-21.2,39.3-23.8c10-1.6,20.1-1.5,30,1.4c21,6,32.4,20.5,35.6,41.7
	c1.2,7.8,1.8,15.7,1.9,23.6c0.2,33.8,0.1,67.6,0.1,101.4C443.6,218.4,443.5,219.3,443.5,220.4z"/>
<path class="st0" d="M519,220.4h-33.9V6.3h122.1v28h-89.1v62.3h81.4v28.7H519V220.4z"/>
<path class="st0" d="M61.2,0c-0.3,1.3-0.5,2.3-0.8,3.2C52.4,28.8,47,55,44.3,81.6c-0.5,5-0.6,10-1.2,14.9c-0.3,1.8-1.1,3.5-2.4,4.7
	c-4.3,4.1-8.8,7.9-13.6,12.1c4.5,3.9,8.7,7.8,13.2,11.5c1.9,1.5,3,3.7,3.1,6.1c1.9,31.8,7.8,63.2,17.4,93.5c0.2,0.7,0.3,1.4,0.3,2.1
	c-10.1,0-20.1,0-30,0c-2.3,0-3.2-1.8-3.7-3.7c-4-15-8.4-30-11.9-45.2c-3.8-17.1-6-34.4-6.5-51.9c0.1-2.3-0.9-4.5-2.7-6
	c-2.2-2-4.2-4.3-6.3-6.6c1.9-2,3.8-4.3,6.1-6.2c1.9-1.6,3-4,3-6.5c1-23.2,4.3-46.2,10.1-68.6c2.4-9.4,5.4-18.8,8.1-28.1
	c0.6-2,1.5-3.8,3.9-3.8C41.1,0,51,0,61.2,0z"/>
</svg>
